<?xml version="1.0" encoding="UTF-8"?>
<!DOCTYPE svg PUBLIC "-//W3C//DTD SVG 1.1//EN" "http://www.w3.org/Graphics/SVG/1.1/DTD/svg11.dtd">
<svg version="1.1" xmlns="http://www.w3.org/2000/svg" xmlns:xlink="http://www.w3.org/1999/xlink" x="0" y="0" width="6000" height="6000" viewBox="0, 0, 1200, 1200">
  <g id="Layer_1">
    <path d="M600,1200 C268.629,1200 0,931.371 0,600 C-0,268.629 268.629,0 600,0 C931.371,-0 1200,268.629 1200,600 C1200,931.371 931.371,1200 600,1200 z" fill="#3794CE"/>
    <path d="M599,1108 C322.858,1108 99,884.142 99,608 C99,331.858 322.858,108 599,108 C875.142,108 1099,331.858 1099,608 C1099,884.142 875.142,1108 599,1108 z" fill="#FFFEFE"/>
    <path d="M1025.095,640.279 C1025.095,640.279 1034.799,632.036 1025.511,622.973 C1025.511,622.973 1006.521,607.566 1001.884,602.932 C997.241,598.27 993.865,595.755 993.865,595.755 C993.865,595.755 993.45,570.433 982.687,551.445 C971.924,532.449 957.578,506.924 941.957,496.573 C941.957,496.573 850.749,418.599 714.107,415.365 C714.107,415.365 689.363,375.557 639.87,379.865 C639.87,379.865 629.106,382.013 642.017,389.546 C642.017,389.546 660.305,416.439 643.092,427.205 C643.092,427.205 495.689,476.694 406.381,690.81 C406.381,690.81 407.464,694.042 384.861,697.266 C384.861,697.266 299.859,714.48 284.797,743.532 C284.797,743.532 283.721,747.841 294.484,744.617 C294.484,744.617 324.611,734.926 345.047,743.532 C345.047,743.532 371.948,753.223 390.243,746.765 C390.243,746.765 399.925,740.308 403.148,748.924 C403.148,748.924 425.751,760.755 437.588,763.987 C437.588,763.987 452.644,768.286 452.644,780.126 C452.644,780.126 456.956,786.573 463.406,774.743 C463.406,774.743 481.703,751.073 446.187,712.329 C446.187,712.329 453.726,696.202 470.939,686.511 C470.939,686.511 510.751,642.394 529.039,629.49 C547.326,616.576 618.343,577.842 674.294,576.757 C674.294,576.757 768.984,573.534 781.896,579.992 C781.896,579.992 789.42,635.937 765.761,652.086 C765.761,652.086 758.222,663.916 775.435,661.767 C775.435,661.767 810.95,652.086 832.461,612.278 C832.461,612.278 841.075,591.821 849.689,596.12 C849.689,596.12 933.601,620.875 947.595,619.81 C947.595,619.812 1031.581,663.969 1025.095,640.279 z" fill="#A7A7A7"/>
    <path d="M926.328,779.603 C926.328,779.603 936.032,771.36 926.744,762.297 C926.744,762.297 907.754,746.89 903.117,742.256 C898.474,737.594 895.098,735.079 895.098,735.079 C895.098,735.079 894.683,709.757 883.92,690.769 C873.157,671.773 858.811,646.248 843.19,635.897 C843.19,635.897 751.982,557.923 615.34,554.689 C615.34,554.689 590.596,514.881 541.103,519.189 C541.103,519.189 530.339,521.337 543.25,528.87 C543.25,528.87 561.538,555.763 544.325,566.529 C544.325,566.529 396.922,616.018 307.614,830.134 C307.614,830.134 308.697,833.366 286.094,836.59 C286.094,836.59 201.092,853.804 186.03,882.856 C186.03,882.856 184.954,887.165 195.717,883.941 C195.717,883.941 225.844,874.25 246.28,882.856 C246.28,882.856 273.181,892.547 291.476,886.089 C291.476,886.089 301.158,879.632 304.381,888.248 C304.381,888.248 326.984,900.079 338.821,903.311 C338.821,903.311 353.877,907.61 353.877,919.45 C353.877,919.45 358.189,925.897 364.639,914.067 C364.639,914.067 382.936,890.397 347.42,851.653 C347.42,851.653 354.959,835.526 372.172,825.835 C372.172,825.835 411.984,781.718 430.272,768.814 C448.559,755.9 519.576,717.166 575.527,716.081 C575.527,716.081 670.217,712.858 683.129,719.316 C683.129,719.316 690.653,775.261 666.994,791.41 C666.994,791.41 659.455,803.24 676.668,801.091 C676.668,801.091 712.183,791.41 733.694,751.602 C733.694,751.602 742.308,731.145 750.922,735.444 C750.922,735.444 834.834,760.199 848.828,759.134 C848.828,759.136 932.814,803.293 926.328,779.603 z" fill="#2C2C2C"/>
    <path d="M909.051,386.901 C909.051,386.901 915.583,375.972 903.871,370.383 C903.871,370.383 880.931,361.913 875.049,359.019 C869.152,356.101 865.146,354.807 865.146,354.807 C865.146,354.807 856.597,330.968 840.292,316.458 C823.985,301.941 802.183,282.396 784.06,277.628 C784.06,277.628 672.599,233.184 542.196,274.13 C542.196,274.13 505.95,244.412 460.481,264.431 C460.481,264.431 450.983,269.931 465.632,272.904 C465.632,272.904 491.607,292.475 478.778,308.211 C478.778,308.211 355.168,402.536 339.578,634.007 C339.578,634.007 341.645,636.718 321.284,647.05 C321.284,647.05 246.355,690.723 241.453,723.078 C241.453,723.078 241.822,727.504 250.973,720.985 C250.973,720.985 276.374,702.108 298.492,703.673 C298.492,703.673 327.081,704.184 342.321,692.178 C342.321,692.178 349.408,682.947 355.234,690.066 C355.234,690.066 380.443,693.986 392.69,693.234 C392.69,693.234 408.329,692.455 412.142,703.664 C412.142,703.664 418.301,708.379 420.597,695.102 C420.597,695.102 430.296,666.8 384.194,641.559 C384.194,641.559 386.137,623.863 399.312,609.145 C399.312,609.145 422.794,554.556 435.952,536.45 C449.105,518.334 503.863,458.792 556.484,439.745 C556.484,439.745 645.09,406.197 659.394,408.153 C659.394,408.153 684.535,458.693 667.338,481.602 C667.338,481.602 664.011,495.229 679.614,487.651 C679.614,487.651 710.119,467.048 717.663,422.433 C717.663,422.433 719.23,400.292 728.769,401.587 C728.769,401.587 816.183,397.998 829.088,392.483 C829.089,392.485 922.821,407.24 909.051,386.901 z" fill="#868484"/>
  </g>
</svg>
